<svg width="50" height="50" viewBox="0 0 50 50" fill="none" xmlns="http://www.w3.org/2000/svg">
<circle cx="25" cy="25" r="25" fill="white"/>
<path fill-rule="evenodd" clip-rule="evenodd" d="M20.115 16.557C17.4696 16.557 15.3508 18.6711 15.3508 21.2475C15.3508 22.5025 15.8499 23.6424 16.6696 24.4871L24.9997 32.9315L33.1788 24.6372C33.1871 24.6288 33.1954 24.6205 33.204 24.6124C34.0985 23.7568 34.649 22.5652 34.649 21.2475C34.649 18.6711 32.5301 16.557 29.8848 16.557C29.3105 16.557 28.6381 16.8786 27.89 17.5413C27.1608 18.1871 26.5079 19.025 25.982 19.7627C25.7556 20.0801 25.3898 20.2686 24.9999 20.2686C24.61 20.2686 24.2442 20.0801 24.0178 19.7627C23.4919 19.025 22.8389 18.1871 22.1098 17.5413C21.3616 16.8786 20.6893 16.557 20.115 16.557ZM12.9385 21.2475C12.9385 17.3107 16.1657 14.1447 20.115 14.1447C21.56 14.1447 22.7898 14.9212 23.7092 15.7355C24.1826 16.1548 24.6157 16.6217 24.9999 17.0813C25.384 16.6217 25.8171 16.1548 26.2906 15.7355C27.2099 14.9212 28.4398 14.1447 29.8848 14.1447C33.8341 14.1447 37.0613 17.3107 37.0613 21.2475C37.0613 23.2485 36.2239 25.0554 34.8846 26.3429L25.8587 35.496C25.6321 35.7258 25.3228 35.8552 25 35.8552C24.6772 35.8553 24.3679 35.7259 24.1412 35.4961L14.9428 26.1716C13.7043 24.8975 12.9385 23.1609 12.9385 21.2475Z" fill="black"/>
</svg>
